<mxfile host="app.diagrams.net" modified="2020-10-23T07:08:41.138Z" agent="5.0 (Macintosh; Intel Mac OS X 10_12_6) AppleWebKit/537.36 (KHTML, like Gecko) Chrome/86.0.4240.80 Safari/537.36" etag="KpVEVjvWCdMqrKssGlj4" version="13.7.4" type="github">
  <diagram id="bQWLj3P9DAoW00m1-NoQ" name="Page-1">
    <mxGraphModel dx="1933" dy="540" grid="0" gridSize="10" guides="1" tooltips="1" connect="1" arrows="1" fold="1" page="1" pageScale="1" pageWidth="827" pageHeight="1169" math="0" shadow="0">
      <root>
        <mxCell id="0" />
        <mxCell id="1" parent="0" />
        <mxCell id="UONJU83UgaEwQnr5J4Ik-1" value="部门队列" style="rounded=1;whiteSpace=wrap;html=1;fillColor=#dae8fc;strokeColor=#6c8ebf;" vertex="1" parent="1">
          <mxGeometry x="100" y="420" width="120" height="60" as="geometry" />
        </mxCell>
        <mxCell id="UONJU83UgaEwQnr5J4Ik-2" value="Adhoc队列" style="rounded=1;whiteSpace=wrap;html=1;fillColor=#e1d5e7;strokeColor=#9673a6;" vertex="1" parent="1">
          <mxGeometry x="354" y="550" width="120" height="60" as="geometry" />
        </mxCell>
        <mxCell id="UONJU83UgaEwQnr5J4Ik-3" value="测试队列" style="rounded=1;whiteSpace=wrap;html=1;fillColor=#d5e8d4;strokeColor=#82b366;" vertex="1" parent="1">
          <mxGeometry x="354" y="420" width="120" height="60" as="geometry" />
        </mxCell>
        <mxCell id="UONJU83UgaEwQnr5J4Ik-4" value="生产队列" style="rounded=1;whiteSpace=wrap;html=1;fillColor=#ffe6cc;strokeColor=#d79b00;" vertex="1" parent="1">
          <mxGeometry x="354" y="300" width="120" height="60" as="geometry" />
        </mxCell>
        <mxCell id="UONJU83UgaEwQnr5J4Ik-5" value="" style="endArrow=classic;html=1;exitX=1;exitY=0.25;exitDx=0;exitDy=0;entryX=0;entryY=0.5;entryDx=0;entryDy=0;" edge="1" parent="1" source="UONJU83UgaEwQnr5J4Ik-1" target="UONJU83UgaEwQnr5J4Ik-4">
          <mxGeometry width="50" height="50" relative="1" as="geometry">
            <mxPoint x="60" y="440" as="sourcePoint" />
            <mxPoint x="110" y="390" as="targetPoint" />
          </mxGeometry>
        </mxCell>
        <mxCell id="UONJU83UgaEwQnr5J4Ik-6" value="" style="endArrow=classic;html=1;exitX=1;exitY=0.5;exitDx=0;exitDy=0;entryX=0;entryY=0.5;entryDx=0;entryDy=0;" edge="1" parent="1" source="UONJU83UgaEwQnr5J4Ik-1" target="UONJU83UgaEwQnr5J4Ik-3">
          <mxGeometry width="50" height="50" relative="1" as="geometry">
            <mxPoint x="230" y="445" as="sourcePoint" />
            <mxPoint x="364" y="340" as="targetPoint" />
          </mxGeometry>
        </mxCell>
        <mxCell id="UONJU83UgaEwQnr5J4Ik-7" value="" style="endArrow=classic;html=1;exitX=1;exitY=0.75;exitDx=0;exitDy=0;entryX=0;entryY=0.5;entryDx=0;entryDy=0;" edge="1" parent="1" source="UONJU83UgaEwQnr5J4Ik-1" target="UONJU83UgaEwQnr5J4Ik-2">
          <mxGeometry width="50" height="50" relative="1" as="geometry">
            <mxPoint x="230" y="460" as="sourcePoint" />
            <mxPoint x="364" y="460" as="targetPoint" />
          </mxGeometry>
        </mxCell>
        <mxCell id="UONJU83UgaEwQnr5J4Ik-11" value="生产队列" style="rounded=1;whiteSpace=wrap;html=1;fillColor=#ffe6cc;strokeColor=#d79b00;" vertex="1" parent="1">
          <mxGeometry x="996" y="296" width="120" height="60" as="geometry" />
        </mxCell>
        <mxCell id="UONJU83UgaEwQnr5J4Ik-15" value="P0 App&amp;nbsp;" style="rounded=1;whiteSpace=wrap;html=1;fillColor=#dae8fc;strokeColor=#6c8ebf;" vertex="1" parent="1">
          <mxGeometry x="1332" y="253" width="101" height="28" as="geometry" />
        </mxCell>
        <mxCell id="UONJU83UgaEwQnr5J4Ik-17" value="App Pending list" style="rounded=1;whiteSpace=wrap;html=1;fillColor=#dae8fc;strokeColor=#6c8ebf;" vertex="1" parent="1">
          <mxGeometry x="1172" y="253" width="116" height="28" as="geometry" />
        </mxCell>
        <mxCell id="UONJU83UgaEwQnr5J4Ik-18" value="" style="endArrow=classic;html=1;exitX=1;exitY=0.75;exitDx=0;exitDy=0;entryX=0;entryY=0.5;entryDx=0;entryDy=0;" edge="1" parent="1" source="UONJU83UgaEwQnr5J4Ik-11" target="UONJU83UgaEwQnr5J4Ik-19">
          <mxGeometry width="50" height="50" relative="1" as="geometry">
            <mxPoint x="747" y="344" as="sourcePoint" />
            <mxPoint x="797" y="294" as="targetPoint" />
          </mxGeometry>
        </mxCell>
        <mxCell id="UONJU83UgaEwQnr5J4Ik-19" value="App Running list" style="rounded=1;whiteSpace=wrap;html=1;fillColor=#e1d5e7;strokeColor=#9673a6;" vertex="1" parent="1">
          <mxGeometry x="1175" y="358" width="116" height="28" as="geometry" />
        </mxCell>
        <mxCell id="UONJU83UgaEwQnr5J4Ik-20" value="P0 App&amp;nbsp;" style="rounded=1;whiteSpace=wrap;html=1;fillColor=#e1d5e7;strokeColor=#9673a6;" vertex="1" parent="1">
          <mxGeometry x="1338" y="392" width="101" height="28" as="geometry" />
        </mxCell>
        <mxCell id="UONJU83UgaEwQnr5J4Ik-21" value="P1 App&amp;nbsp;" style="rounded=1;whiteSpace=wrap;html=1;fillColor=#e1d5e7;strokeColor=#9673a6;" vertex="1" parent="1">
          <mxGeometry x="1340" y="340" width="97" height="28" as="geometry" />
        </mxCell>
        <mxCell id="UONJU83UgaEwQnr5J4Ik-23" value="" style="endArrow=classic;html=1;exitX=1;exitY=0.35;exitDx=0;exitDy=0;entryX=0;entryY=0.5;entryDx=0;entryDy=0;exitPerimeter=0;" edge="1" parent="1" source="UONJU83UgaEwQnr5J4Ik-11" target="UONJU83UgaEwQnr5J4Ik-17">
          <mxGeometry width="50" height="50" relative="1" as="geometry">
            <mxPoint x="1126" y="351" as="sourcePoint" />
            <mxPoint x="1185" y="382" as="targetPoint" />
          </mxGeometry>
        </mxCell>
        <mxCell id="UONJU83UgaEwQnr5J4Ik-24" value="" style="endArrow=classic;html=1;exitX=1;exitY=0.5;exitDx=0;exitDy=0;entryX=0;entryY=0.5;entryDx=0;entryDy=0;" edge="1" parent="1" source="UONJU83UgaEwQnr5J4Ik-17" target="UONJU83UgaEwQnr5J4Ik-15">
          <mxGeometry width="50" height="50" relative="1" as="geometry">
            <mxPoint x="1126" y="327" as="sourcePoint" />
            <mxPoint x="1182" y="277" as="targetPoint" />
          </mxGeometry>
        </mxCell>
        <mxCell id="UONJU83UgaEwQnr5J4Ik-25" value="" style="endArrow=classic;html=1;exitX=1;exitY=0.5;exitDx=0;exitDy=0;entryX=0;entryY=0.5;entryDx=0;entryDy=0;" edge="1" parent="1" source="UONJU83UgaEwQnr5J4Ik-19" target="UONJU83UgaEwQnr5J4Ik-21">
          <mxGeometry width="50" height="50" relative="1" as="geometry">
            <mxPoint x="964" y="472" as="sourcePoint" />
            <mxPoint x="1014" y="422" as="targetPoint" />
          </mxGeometry>
        </mxCell>
        <mxCell id="UONJU83UgaEwQnr5J4Ik-26" value="" style="endArrow=classic;html=1;exitX=1;exitY=0.75;exitDx=0;exitDy=0;entryX=0;entryY=0.5;entryDx=0;entryDy=0;" edge="1" parent="1" source="UONJU83UgaEwQnr5J4Ik-19" target="UONJU83UgaEwQnr5J4Ik-20">
          <mxGeometry width="50" height="50" relative="1" as="geometry">
            <mxPoint x="1301" y="375" as="sourcePoint" />
            <mxPoint x="1350" y="364" as="targetPoint" />
          </mxGeometry>
        </mxCell>
        <mxCell id="UONJU83UgaEwQnr5J4Ik-27" value="" style="endArrow=classic;html=1;entryX=1;entryY=0.5;entryDx=0;entryDy=0;exitX=0.13;exitY=0.77;exitDx=0;exitDy=0;exitPerimeter=0;edgeStyle=orthogonalEdgeStyle;curved=1;" edge="1" parent="1" source="UONJU83UgaEwQnr5J4Ik-28" target="UONJU83UgaEwQnr5J4Ik-21">
          <mxGeometry width="50" height="50" relative="1" as="geometry">
            <mxPoint x="1471" y="327" as="sourcePoint" />
            <mxPoint x="1214" y="476" as="targetPoint" />
          </mxGeometry>
        </mxCell>
        <mxCell id="UONJU83UgaEwQnr5J4Ik-30" value="放入Pending" style="edgeLabel;html=1;align=center;verticalAlign=middle;resizable=0;points=[];" vertex="1" connectable="0" parent="UONJU83UgaEwQnr5J4Ik-27">
          <mxGeometry x="0.2074" y="3" relative="1" as="geometry">
            <mxPoint x="15" y="-3" as="offset" />
          </mxGeometry>
        </mxCell>
        <mxCell id="UONJU83UgaEwQnr5J4Ik-28" value="APP抢占模块" style="ellipse;shape=cloud;whiteSpace=wrap;html=1;fillColor=#d5e8d4;strokeColor=#82b366;" vertex="1" parent="1">
          <mxGeometry x="1521" y="281" width="120" height="80" as="geometry" />
        </mxCell>
        <mxCell id="UONJU83UgaEwQnr5J4Ik-29" value="" style="endArrow=classic;html=1;entryX=1;entryY=0.5;entryDx=0;entryDy=0;exitX=0.07;exitY=0.4;exitDx=0;exitDy=0;exitPerimeter=0;edgeStyle=orthogonalEdgeStyle;curved=1;" edge="1" parent="1" source="UONJU83UgaEwQnr5J4Ik-28" target="UONJU83UgaEwQnr5J4Ik-15">
          <mxGeometry width="50" height="50" relative="1" as="geometry">
            <mxPoint x="1520.6" y="349.6" as="sourcePoint" />
            <mxPoint x="1447" y="364" as="targetPoint" />
          </mxGeometry>
        </mxCell>
        <mxCell id="UONJU83UgaEwQnr5J4Ik-31" value="放入Running" style="edgeLabel;html=1;align=center;verticalAlign=middle;resizable=0;points=[];" vertex="1" connectable="0" parent="UONJU83UgaEwQnr5J4Ik-29">
          <mxGeometry x="0.0631" y="2" relative="1" as="geometry">
            <mxPoint x="12" as="offset" />
          </mxGeometry>
        </mxCell>
        <mxCell id="UONJU83UgaEwQnr5J4Ik-32" value="" style="rounded=1;whiteSpace=wrap;html=1;fillColor=#ffe6cc;strokeColor=#d79b00;" vertex="1" parent="1">
          <mxGeometry x="954" y="557" width="132" height="266" as="geometry" />
        </mxCell>
        <mxCell id="UONJU83UgaEwQnr5J4Ik-33" value="P0 container" style="rounded=1;whiteSpace=wrap;html=1;fillColor=#f8cecc;strokeColor=#b85450;" vertex="1" parent="1">
          <mxGeometry x="960" y="746" width="120" height="60" as="geometry" />
        </mxCell>
        <mxCell id="UONJU83UgaEwQnr5J4Ik-34" value="P1 container" style="rounded=1;whiteSpace=wrap;html=1;fillColor=#d5e8d4;strokeColor=#82b366;" vertex="1" parent="1">
          <mxGeometry x="963" y="676" width="120" height="60" as="geometry" />
        </mxCell>
        <mxCell id="UONJU83UgaEwQnr5J4Ik-35" value="P2 AM container" style="rounded=1;whiteSpace=wrap;html=1;fillColor=#dae8fc;strokeColor=#6c8ebf;" vertex="1" parent="1">
          <mxGeometry x="963" y="603" width="120" height="60" as="geometry" />
        </mxCell>
        <mxCell id="UONJU83UgaEwQnr5J4Ik-36" value="NodeA" style="text;html=1;strokeColor=none;fillColor=none;align=center;verticalAlign=middle;whiteSpace=wrap;rounded=0;" vertex="1" parent="1">
          <mxGeometry x="963" y="567" width="40" height="20" as="geometry" />
        </mxCell>
        <mxCell id="UONJU83UgaEwQnr5J4Ik-37" value="" style="rounded=1;whiteSpace=wrap;html=1;fillColor=#ffe6cc;strokeColor=#d79b00;" vertex="1" parent="1">
          <mxGeometry x="1231" y="557" width="132" height="266" as="geometry" />
        </mxCell>
        <mxCell id="UONJU83UgaEwQnr5J4Ik-38" value="P0 container" style="rounded=1;whiteSpace=wrap;html=1;fillColor=#f8cecc;strokeColor=#b85450;" vertex="1" parent="1">
          <mxGeometry x="1237" y="746" width="120" height="60" as="geometry" />
        </mxCell>
        <mxCell id="UONJU83UgaEwQnr5J4Ik-39" value="P1 container" style="rounded=1;whiteSpace=wrap;html=1;fillColor=#d5e8d4;strokeColor=#82b366;" vertex="1" parent="1">
          <mxGeometry x="1240" y="676" width="120" height="60" as="geometry" />
        </mxCell>
        <mxCell id="UONJU83UgaEwQnr5J4Ik-40" value="P2&amp;nbsp; container" style="rounded=1;whiteSpace=wrap;html=1;fillColor=#dae8fc;strokeColor=#6c8ebf;" vertex="1" parent="1">
          <mxGeometry x="1240" y="603" width="120" height="60" as="geometry" />
        </mxCell>
        <mxCell id="UONJU83UgaEwQnr5J4Ik-41" value="NodeB" style="text;html=1;strokeColor=none;fillColor=none;align=center;verticalAlign=middle;whiteSpace=wrap;rounded=0;" vertex="1" parent="1">
          <mxGeometry x="1240" y="567" width="40" height="20" as="geometry" />
        </mxCell>
        <mxCell id="UONJU83UgaEwQnr5J4Ik-42" value="reserve抢占模块" style="ellipse;shape=cloud;whiteSpace=wrap;html=1;fillColor=#f5f5f5;strokeColor=#666666;fontColor=#333333;" vertex="1" parent="1">
          <mxGeometry x="1437" y="528" width="135" height="80" as="geometry" />
        </mxCell>
        <mxCell id="UONJU83UgaEwQnr5J4Ik-43" value="P0 Pending Requst" style="rounded=1;whiteSpace=wrap;html=1;fillColor=#f8cecc;strokeColor=#b85450;" vertex="1" parent="1">
          <mxGeometry x="1092" y="444" width="120" height="60" as="geometry" />
        </mxCell>
        <mxCell id="UONJU83UgaEwQnr5J4Ik-44" value="" style="endArrow=classic;html=1;exitX=0;exitY=0.75;exitDx=0;exitDy=0;entryX=0.5;entryY=0;entryDx=0;entryDy=0;" edge="1" parent="1" source="UONJU83UgaEwQnr5J4Ik-43" target="UONJU83UgaEwQnr5J4Ik-32">
          <mxGeometry width="50" height="50" relative="1" as="geometry">
            <mxPoint x="878" y="582" as="sourcePoint" />
            <mxPoint x="928" y="532" as="targetPoint" />
          </mxGeometry>
        </mxCell>
        <mxCell id="UONJU83UgaEwQnr5J4Ik-45" value="reserve" style="edgeLabel;html=1;align=center;verticalAlign=middle;resizable=0;points=[];" vertex="1" connectable="0" parent="UONJU83UgaEwQnr5J4Ik-44">
          <mxGeometry x="-0.2194" y="-1" relative="1" as="geometry">
            <mxPoint y="1" as="offset" />
          </mxGeometry>
        </mxCell>
        <mxCell id="UONJU83UgaEwQnr5J4Ik-46" value="" style="endArrow=classic;html=1;exitX=1;exitY=0.75;exitDx=0;exitDy=0;entryX=0.5;entryY=0;entryDx=0;entryDy=0;" edge="1" parent="1" source="UONJU83UgaEwQnr5J4Ik-43" target="UONJU83UgaEwQnr5J4Ik-37">
          <mxGeometry width="50" height="50" relative="1" as="geometry">
            <mxPoint x="1102" y="499" as="sourcePoint" />
            <mxPoint x="1031" y="567" as="targetPoint" />
          </mxGeometry>
        </mxCell>
        <mxCell id="UONJU83UgaEwQnr5J4Ik-47" value="reserve" style="edgeLabel;html=1;align=center;verticalAlign=middle;resizable=0;points=[];" vertex="1" connectable="0" parent="UONJU83UgaEwQnr5J4Ik-46">
          <mxGeometry x="-0.2194" y="-1" relative="1" as="geometry">
            <mxPoint y="1" as="offset" />
          </mxGeometry>
        </mxCell>
        <mxCell id="UONJU83UgaEwQnr5J4Ik-48" value="" style="endArrow=classic;html=1;exitX=0.13;exitY=0.77;exitDx=0;exitDy=0;exitPerimeter=0;entryX=1;entryY=0.5;entryDx=0;entryDy=0;edgeStyle=orthogonalEdgeStyle;curved=1;" edge="1" parent="1" source="UONJU83UgaEwQnr5J4Ik-42" target="UONJU83UgaEwQnr5J4Ik-40">
          <mxGeometry width="50" height="50" relative="1" as="geometry">
            <mxPoint x="665" y="652" as="sourcePoint" />
            <mxPoint x="715" y="602" as="targetPoint" />
          </mxGeometry>
        </mxCell>
        <mxCell id="UONJU83UgaEwQnr5J4Ik-49" value="抢占" style="edgeLabel;html=1;align=center;verticalAlign=middle;resizable=0;points=[];" vertex="1" connectable="0" parent="UONJU83UgaEwQnr5J4Ik-48">
          <mxGeometry x="-0.2945" y="13" relative="1" as="geometry">
            <mxPoint as="offset" />
          </mxGeometry>
        </mxCell>
        <mxCell id="UONJU83UgaEwQnr5J4Ik-50" value="ApplicationMaster" style="rounded=1;whiteSpace=wrap;html=1;fillColor=#f8cecc;strokeColor=#b85450;" vertex="1" parent="1">
          <mxGeometry x="375" y="934" width="120" height="60" as="geometry" />
        </mxCell>
        <mxCell id="UONJU83UgaEwQnr5J4Ik-56" value="RM" style="rounded=1;whiteSpace=wrap;html=1;fillColor=#d0cee2;strokeColor=#56517e;" vertex="1" parent="1">
          <mxGeometry x="459" y="676" width="120" height="60" as="geometry" />
        </mxCell>
        <mxCell id="UONJU83UgaEwQnr5J4Ik-57" value="异常节点判定" style="ellipse;shape=cloud;whiteSpace=wrap;html=1;fillColor=#f5f5f5;strokeColor=#666666;fontColor=#333333;" vertex="1" parent="1">
          <mxGeometry x="195" y="778" width="120" height="80" as="geometry" />
        </mxCell>
        <mxCell id="UONJU83UgaEwQnr5J4Ik-58" value="ApplicationMaster" style="rounded=1;whiteSpace=wrap;html=1;fillColor=#d5e8d4;strokeColor=#82b366;" vertex="1" parent="1">
          <mxGeometry x="375" y="823" width="120" height="60" as="geometry" />
        </mxCell>
        <mxCell id="UONJU83UgaEwQnr5J4Ik-59" value="" style="endArrow=classic;html=1;entryX=0.55;entryY=0.95;entryDx=0;entryDy=0;entryPerimeter=0;edgeStyle=orthogonalEdgeStyle;curved=1;exitX=0;exitY=0.5;exitDx=0;exitDy=0;" edge="1" parent="1" source="UONJU83UgaEwQnr5J4Ik-50" target="UONJU83UgaEwQnr5J4Ik-57">
          <mxGeometry width="50" height="50" relative="1" as="geometry">
            <mxPoint x="370" y="965" as="sourcePoint" />
            <mxPoint x="289" y="941" as="targetPoint" />
          </mxGeometry>
        </mxCell>
        <mxCell id="UONJU83UgaEwQnr5J4Ik-60" value="" style="endArrow=classic;html=1;entryX=0.96;entryY=0.553;entryDx=0;entryDy=0;entryPerimeter=0;edgeStyle=orthogonalEdgeStyle;curved=1;exitX=0;exitY=0.5;exitDx=0;exitDy=0;" edge="1" parent="1" source="UONJU83UgaEwQnr5J4Ik-58" target="UONJU83UgaEwQnr5J4Ik-57">
          <mxGeometry width="50" height="50" relative="1" as="geometry">
            <mxPoint x="380" y="975" as="sourcePoint" />
            <mxPoint x="271" y="864" as="targetPoint" />
          </mxGeometry>
        </mxCell>
        <mxCell id="UONJU83UgaEwQnr5J4Ik-62" value="" style="endArrow=classic;html=1;exitX=0.88;exitY=0.25;exitDx=0;exitDy=0;exitPerimeter=0;entryX=0;entryY=0.5;entryDx=0;entryDy=0;edgeStyle=orthogonalEdgeStyle;curved=1;" edge="1" parent="1" source="UONJU83UgaEwQnr5J4Ik-57" target="UONJU83UgaEwQnr5J4Ik-56">
          <mxGeometry width="50" height="50" relative="1" as="geometry">
            <mxPoint x="206" y="971" as="sourcePoint" />
            <mxPoint x="256" y="921" as="targetPoint" />
          </mxGeometry>
        </mxCell>
        <mxCell id="UONJU83UgaEwQnr5J4Ik-63" value="拉黑节点" style="edgeLabel;html=1;align=center;verticalAlign=middle;resizable=0;points=[];" vertex="1" connectable="0" parent="UONJU83UgaEwQnr5J4Ik-62">
          <mxGeometry x="-0.3481" y="25" relative="1" as="geometry">
            <mxPoint as="offset" />
          </mxGeometry>
        </mxCell>
        <mxCell id="UONJU83UgaEwQnr5J4Ik-64" value="" style="rounded=1;whiteSpace=wrap;html=1;fillColor=#ffe6cc;strokeColor=#d79b00;" vertex="1" parent="1">
          <mxGeometry x="676" y="731" width="132" height="271" as="geometry" />
        </mxCell>
        <mxCell id="UONJU83UgaEwQnr5J4Ik-65" value="Task" style="rounded=1;whiteSpace=wrap;html=1;fillColor=#f8cecc;strokeColor=#b85450;" vertex="1" parent="1">
          <mxGeometry x="682" y="925" width="120" height="60" as="geometry" />
        </mxCell>
        <mxCell id="UONJU83UgaEwQnr5J4Ik-66" value="Task" style="rounded=1;whiteSpace=wrap;html=1;fillColor=#d5e8d4;strokeColor=#82b366;" vertex="1" parent="1">
          <mxGeometry x="685" y="855" width="120" height="60" as="geometry" />
        </mxCell>
        <mxCell id="UONJU83UgaEwQnr5J4Ik-68" value="NodeA" style="text;html=1;strokeColor=none;fillColor=none;align=center;verticalAlign=middle;whiteSpace=wrap;rounded=0;" vertex="1" parent="1">
          <mxGeometry x="685" y="746" width="40" height="20" as="geometry" />
        </mxCell>
        <mxCell id="UONJU83UgaEwQnr5J4Ik-69" value="NodeManager" style="rounded=1;whiteSpace=wrap;html=1;fillColor=#dae8fc;strokeColor=#6c8ebf;" vertex="1" parent="1">
          <mxGeometry x="685" y="777" width="120" height="60" as="geometry" />
        </mxCell>
        <mxCell id="UONJU83UgaEwQnr5J4Ik-70" value="" style="endArrow=classic;html=1;exitX=1;exitY=0.5;exitDx=0;exitDy=0;entryX=0;entryY=0.5;entryDx=0;entryDy=0;edgeStyle=orthogonalEdgeStyle;curved=1;" edge="1" parent="1" source="UONJU83UgaEwQnr5J4Ik-58" target="UONJU83UgaEwQnr5J4Ik-66">
          <mxGeometry width="50" height="50" relative="1" as="geometry">
            <mxPoint x="211" y="1015" as="sourcePoint" />
            <mxPoint x="383" y="1037" as="targetPoint" />
          </mxGeometry>
        </mxCell>
        <mxCell id="UONJU83UgaEwQnr5J4Ik-71" value="" style="endArrow=classic;html=1;exitX=1;exitY=0.5;exitDx=0;exitDy=0;entryX=0;entryY=0.5;entryDx=0;entryDy=0;edgeStyle=orthogonalEdgeStyle;curved=1;" edge="1" parent="1" source="UONJU83UgaEwQnr5J4Ik-50" target="UONJU83UgaEwQnr5J4Ik-65">
          <mxGeometry width="50" height="50" relative="1" as="geometry">
            <mxPoint x="505" y="863" as="sourcePoint" />
            <mxPoint x="678" y="895" as="targetPoint" />
          </mxGeometry>
        </mxCell>
        <mxCell id="UONJU83UgaEwQnr5J4Ik-72" value="物理指标上报" style="endArrow=classic;html=1;exitX=0;exitY=0.5;exitDx=0;exitDy=0;entryX=1;entryY=0.5;entryDx=0;entryDy=0;edgeStyle=orthogonalEdgeStyle;curved=1;" edge="1" parent="1" source="UONJU83UgaEwQnr5J4Ik-69" target="UONJU83UgaEwQnr5J4Ik-56">
          <mxGeometry width="50" height="50" relative="1" as="geometry">
            <mxPoint x="505" y="863" as="sourcePoint" />
            <mxPoint x="678" y="895" as="targetPoint" />
          </mxGeometry>
        </mxCell>
        <mxCell id="UONJU83UgaEwQnr5J4Ik-73" value="ApplicationMaster" style="rounded=1;whiteSpace=wrap;html=1;fillColor=#f8cecc;strokeColor=#b85450;" vertex="1" parent="1">
          <mxGeometry x="399" y="1462" width="120" height="60" as="geometry" />
        </mxCell>
        <mxCell id="UONJU83UgaEwQnr5J4Ik-74" value="RM" style="rounded=1;whiteSpace=wrap;html=1;fillColor=#d0cee2;strokeColor=#56517e;" vertex="1" parent="1">
          <mxGeometry x="401" y="1245" width="120" height="60" as="geometry" />
        </mxCell>
        <mxCell id="UONJU83UgaEwQnr5J4Ik-75" value="Hawk" style="ellipse;shape=cloud;whiteSpace=wrap;html=1;fillColor=#f5f5f5;strokeColor=#666666;fontColor=#333333;" vertex="1" parent="1">
          <mxGeometry x="695" y="1103" width="120" height="80" as="geometry" />
        </mxCell>
        <mxCell id="UONJU83UgaEwQnr5J4Ik-81" value="" style="rounded=1;whiteSpace=wrap;html=1;fillColor=#ffe6cc;strokeColor=#d79b00;" vertex="1" parent="1">
          <mxGeometry x="618" y="1300" width="132" height="271" as="geometry" />
        </mxCell>
        <mxCell id="UONJU83UgaEwQnr5J4Ik-82" value="Task" style="rounded=1;whiteSpace=wrap;html=1;fillColor=#f8cecc;strokeColor=#b85450;" vertex="1" parent="1">
          <mxGeometry x="624" y="1494" width="120" height="60" as="geometry" />
        </mxCell>
        <mxCell id="UONJU83UgaEwQnr5J4Ik-83" value="Task" style="rounded=1;whiteSpace=wrap;html=1;fillColor=#d5e8d4;strokeColor=#82b366;" vertex="1" parent="1">
          <mxGeometry x="627" y="1424" width="120" height="60" as="geometry" />
        </mxCell>
        <mxCell id="UONJU83UgaEwQnr5J4Ik-84" value="NodeA（宕机）" style="text;html=1;strokeColor=none;fillColor=none;align=center;verticalAlign=middle;whiteSpace=wrap;rounded=0;" vertex="1" parent="1">
          <mxGeometry x="627" y="1315" width="102" height="20" as="geometry" />
        </mxCell>
        <mxCell id="UONJU83UgaEwQnr5J4Ik-85" value="NodeManager" style="rounded=1;whiteSpace=wrap;html=1;fillColor=#dae8fc;strokeColor=#6c8ebf;" vertex="1" parent="1">
          <mxGeometry x="627" y="1346" width="120" height="60" as="geometry" />
        </mxCell>
        <mxCell id="UONJU83UgaEwQnr5J4Ik-87" value="" style="endArrow=classic;html=1;exitX=1;exitY=0.5;exitDx=0;exitDy=0;entryX=0;entryY=0.5;entryDx=0;entryDy=0;edgeStyle=orthogonalEdgeStyle;curved=1;" edge="1" parent="1" source="UONJU83UgaEwQnr5J4Ik-73" target="UONJU83UgaEwQnr5J4Ik-82">
          <mxGeometry width="50" height="50" relative="1" as="geometry">
            <mxPoint x="447" y="1432" as="sourcePoint" />
            <mxPoint x="620" y="1464" as="targetPoint" />
          </mxGeometry>
        </mxCell>
        <mxCell id="UONJU83UgaEwQnr5J4Ik-89" value="" style="endArrow=classic;html=1;exitX=0.55;exitY=0.95;exitDx=0;exitDy=0;exitPerimeter=0;edgeStyle=orthogonalEdgeStyle;curved=1;entryX=0.5;entryY=0;entryDx=0;entryDy=0;" edge="1" parent="1" source="UONJU83UgaEwQnr5J4Ik-75" target="UONJU83UgaEwQnr5J4Ik-81">
          <mxGeometry width="50" height="50" relative="1" as="geometry">
            <mxPoint x="252.5999999999999" y="1377" as="sourcePoint" />
            <mxPoint x="614" y="1396" as="targetPoint" />
          </mxGeometry>
        </mxCell>
        <mxCell id="UONJU83UgaEwQnr5J4Ik-91" value="1，发现节点宕机" style="edgeLabel;html=1;align=center;verticalAlign=middle;resizable=0;points=[];" vertex="1" connectable="0" parent="UONJU83UgaEwQnr5J4Ik-89">
          <mxGeometry x="0.0171" y="-18" relative="1" as="geometry">
            <mxPoint x="10.5" y="15.5" as="offset" />
          </mxGeometry>
        </mxCell>
        <mxCell id="UONJU83UgaEwQnr5J4Ik-92" value="" style="endArrow=classic;html=1;exitX=0.311;exitY=-0.053;exitDx=0;exitDy=0;entryX=0.25;entryY=1;entryDx=0;entryDy=0;exitPerimeter=0;" edge="1" parent="1" source="UONJU83UgaEwQnr5J4Ik-73" target="UONJU83UgaEwQnr5J4Ik-74">
          <mxGeometry width="50" height="50" relative="1" as="geometry">
            <mxPoint x="139" y="1334" as="sourcePoint" />
            <mxPoint x="450" y="1306" as="targetPoint" />
          </mxGeometry>
        </mxCell>
        <mxCell id="UONJU83UgaEwQnr5J4Ik-96" value="3，获取失败container" style="edgeLabel;html=1;align=center;verticalAlign=middle;resizable=0;points=[];" vertex="1" connectable="0" parent="UONJU83UgaEwQnr5J4Ik-92">
          <mxGeometry x="0.1744" y="1" relative="1" as="geometry">
            <mxPoint as="offset" />
          </mxGeometry>
        </mxCell>
        <mxCell id="UONJU83UgaEwQnr5J4Ik-94" value="" style="endArrow=classic;html=1;exitX=0.075;exitY=0.685;exitDx=0;exitDy=0;exitPerimeter=0;entryX=0.5;entryY=0;entryDx=0;entryDy=0;edgeStyle=orthogonalEdgeStyle;curved=1;" edge="1" parent="1" source="UONJU83UgaEwQnr5J4Ik-75" target="UONJU83UgaEwQnr5J4Ik-74">
          <mxGeometry width="50" height="50" relative="1" as="geometry">
            <mxPoint x="376" y="1197" as="sourcePoint" />
            <mxPoint x="426" y="1147" as="targetPoint" />
          </mxGeometry>
        </mxCell>
        <mxCell id="UONJU83UgaEwQnr5J4Ik-95" value="2，强制节点container失败" style="edgeLabel;html=1;align=center;verticalAlign=middle;resizable=0;points=[];" vertex="1" connectable="0" parent="UONJU83UgaEwQnr5J4Ik-94">
          <mxGeometry x="-0.2429" y="5" relative="1" as="geometry">
            <mxPoint y="6.2" as="offset" />
          </mxGeometry>
        </mxCell>
        <mxCell id="UONJU83UgaEwQnr5J4Ik-97" value="" style="rounded=1;whiteSpace=wrap;html=1;fillColor=#ffe6cc;strokeColor=#d79b00;" vertex="1" parent="1">
          <mxGeometry x="174" y="1296" width="132" height="271" as="geometry" />
        </mxCell>
        <mxCell id="UONJU83UgaEwQnr5J4Ik-98" value="Task" style="rounded=1;whiteSpace=wrap;html=1;fillColor=#d5e8d4;strokeColor=#82b366;" vertex="1" parent="1">
          <mxGeometry x="180" y="1492" width="120" height="60" as="geometry" />
        </mxCell>
        <mxCell id="UONJU83UgaEwQnr5J4Ik-99" value="Task" style="rounded=1;whiteSpace=wrap;html=1;fillColor=#f8cecc;strokeColor=#b85450;" vertex="1" parent="1">
          <mxGeometry x="183" y="1422" width="120" height="60" as="geometry" />
        </mxCell>
        <mxCell id="UONJU83UgaEwQnr5J4Ik-100" value="NodeB" style="text;html=1;strokeColor=none;fillColor=none;align=center;verticalAlign=middle;whiteSpace=wrap;rounded=0;" vertex="1" parent="1">
          <mxGeometry x="183" y="1313" width="102" height="20" as="geometry" />
        </mxCell>
        <mxCell id="UONJU83UgaEwQnr5J4Ik-101" value="NodeManager" style="rounded=1;whiteSpace=wrap;html=1;fillColor=#dae8fc;strokeColor=#6c8ebf;" vertex="1" parent="1">
          <mxGeometry x="183" y="1344" width="120" height="60" as="geometry" />
        </mxCell>
        <mxCell id="UONJU83UgaEwQnr5J4Ik-103" value="" style="endArrow=classic;html=1;entryX=1;entryY=0.5;entryDx=0;entryDy=0;edgeStyle=orthogonalEdgeStyle;curved=1;" edge="1" parent="1" target="UONJU83UgaEwQnr5J4Ik-99">
          <mxGeometry width="50" height="50" relative="1" as="geometry">
            <mxPoint x="396" y="1488" as="sourcePoint" />
            <mxPoint x="324" y="1452" as="targetPoint" />
          </mxGeometry>
        </mxCell>
        <mxCell id="UONJU83UgaEwQnr5J4Ik-104" value="5，启动新Task" style="edgeLabel;html=1;align=center;verticalAlign=middle;resizable=0;points=[];" vertex="1" connectable="0" parent="UONJU83UgaEwQnr5J4Ik-103">
          <mxGeometry x="0.2616" y="3" relative="1" as="geometry">
            <mxPoint x="7.499999999999998" y="15.5" as="offset" />
          </mxGeometry>
        </mxCell>
        <mxCell id="UONJU83UgaEwQnr5J4Ik-105" value="" style="endArrow=classic;html=1;edgeStyle=orthogonalEdgeStyle;curved=1;" edge="1" parent="1">
          <mxGeometry width="50" height="50" relative="1" as="geometry">
            <mxPoint x="491" y="1458" as="sourcePoint" />
            <mxPoint x="491" y="1308" as="targetPoint" />
          </mxGeometry>
        </mxCell>
        <mxCell id="UONJU83UgaEwQnr5J4Ik-106" value="4，申请资源" style="edgeLabel;html=1;align=center;verticalAlign=middle;resizable=0;points=[];" vertex="1" connectable="0" parent="UONJU83UgaEwQnr5J4Ik-105">
          <mxGeometry x="-0.2372" y="3" relative="1" as="geometry">
            <mxPoint as="offset" />
          </mxGeometry>
        </mxCell>
        <mxCell id="UONJU83UgaEwQnr5J4Ik-128" value="" style="rounded=1;whiteSpace=wrap;html=1;fillColor=#ffe6cc;strokeColor=#d79b00;" vertex="1" parent="1">
          <mxGeometry x="432" y="1730" width="132" height="271" as="geometry" />
        </mxCell>
        <mxCell id="UONJU83UgaEwQnr5J4Ik-131" value="NodeD" style="text;html=1;strokeColor=none;fillColor=none;align=center;verticalAlign=middle;whiteSpace=wrap;rounded=0;" vertex="1" parent="1">
          <mxGeometry x="441" y="1747" width="102" height="20" as="geometry" />
        </mxCell>
        <mxCell id="UONJU83UgaEwQnr5J4Ik-132" value="Task" style="rounded=1;whiteSpace=wrap;html=1;fillColor=#dae8fc;strokeColor=#6c8ebf;" vertex="1" parent="1">
          <mxGeometry x="441" y="1929" width="120" height="60" as="geometry" />
        </mxCell>
        <mxCell id="UONJU83UgaEwQnr5J4Ik-133" value="" style="rounded=1;whiteSpace=wrap;html=1;fillColor=#ffe6cc;strokeColor=#d79b00;" vertex="1" parent="1">
          <mxGeometry x="275" y="1730" width="132" height="271" as="geometry" />
        </mxCell>
        <mxCell id="UONJU83UgaEwQnr5J4Ik-134" value="Task" style="rounded=1;whiteSpace=wrap;html=1;fillColor=#d5e8d4;strokeColor=#82b366;" vertex="1" parent="1">
          <mxGeometry x="281" y="1926" width="120" height="60" as="geometry" />
        </mxCell>
        <mxCell id="UONJU83UgaEwQnr5J4Ik-136" value="NodeC" style="text;html=1;strokeColor=none;fillColor=none;align=center;verticalAlign=middle;whiteSpace=wrap;rounded=0;" vertex="1" parent="1">
          <mxGeometry x="284" y="1747" width="102" height="20" as="geometry" />
        </mxCell>
        <mxCell id="UONJU83UgaEwQnr5J4Ik-137" value="Task" style="rounded=1;whiteSpace=wrap;html=1;fillColor=#dae8fc;strokeColor=#6c8ebf;" vertex="1" parent="1">
          <mxGeometry x="281" y="1853" width="120" height="60" as="geometry" />
        </mxCell>
        <mxCell id="UONJU83UgaEwQnr5J4Ik-138" value="" style="rounded=1;whiteSpace=wrap;html=1;fillColor=#ffe6cc;strokeColor=#d79b00;" vertex="1" parent="1">
          <mxGeometry x="115" y="1727" width="132" height="271" as="geometry" />
        </mxCell>
        <mxCell id="UONJU83UgaEwQnr5J4Ik-139" value="Task" style="rounded=1;whiteSpace=wrap;html=1;fillColor=#d5e8d4;strokeColor=#82b366;" vertex="1" parent="1">
          <mxGeometry x="121" y="1923" width="120" height="60" as="geometry" />
        </mxCell>
        <mxCell id="UONJU83UgaEwQnr5J4Ik-140" value="Task" style="rounded=1;whiteSpace=wrap;html=1;fillColor=#d5e8d4;strokeColor=#82b366;" vertex="1" parent="1">
          <mxGeometry x="124" y="1853" width="120" height="60" as="geometry" />
        </mxCell>
        <mxCell id="UONJU83UgaEwQnr5J4Ik-141" value="NodeB" style="text;html=1;strokeColor=none;fillColor=none;align=center;verticalAlign=middle;whiteSpace=wrap;rounded=0;" vertex="1" parent="1">
          <mxGeometry x="124" y="1744" width="102" height="20" as="geometry" />
        </mxCell>
        <mxCell id="UONJU83UgaEwQnr5J4Ik-142" value="Task" style="rounded=1;whiteSpace=wrap;html=1;fillColor=#dae8fc;strokeColor=#6c8ebf;" vertex="1" parent="1">
          <mxGeometry x="124" y="1775" width="120" height="60" as="geometry" />
        </mxCell>
        <mxCell id="UONJU83UgaEwQnr5J4Ik-143" value="" style="rounded=1;whiteSpace=wrap;html=1;fillColor=#ffe6cc;strokeColor=#d79b00;" vertex="1" parent="1">
          <mxGeometry x="-43" y="1727" width="132" height="271" as="geometry" />
        </mxCell>
        <mxCell id="UONJU83UgaEwQnr5J4Ik-144" value="Task" style="rounded=1;whiteSpace=wrap;html=1;fillColor=#d5e8d4;strokeColor=#82b366;" vertex="1" parent="1">
          <mxGeometry x="-37" y="1923" width="120" height="60" as="geometry" />
        </mxCell>
        <mxCell id="UONJU83UgaEwQnr5J4Ik-145" value="Task" style="rounded=1;whiteSpace=wrap;html=1;fillColor=#d5e8d4;strokeColor=#82b366;" vertex="1" parent="1">
          <mxGeometry x="-34" y="1853" width="120" height="60" as="geometry" />
        </mxCell>
        <mxCell id="UONJU83UgaEwQnr5J4Ik-146" value="NodeA" style="text;html=1;strokeColor=none;fillColor=none;align=center;verticalAlign=middle;whiteSpace=wrap;rounded=0;" vertex="1" parent="1">
          <mxGeometry x="-34" y="1744" width="102" height="20" as="geometry" />
        </mxCell>
        <mxCell id="UONJU83UgaEwQnr5J4Ik-147" value="Task" style="rounded=1;whiteSpace=wrap;html=1;fillColor=#d5e8d4;strokeColor=#82b366;" vertex="1" parent="1">
          <mxGeometry x="-34" y="1775" width="120" height="60" as="geometry" />
        </mxCell>
        <mxCell id="UONJU83UgaEwQnr5J4Ik-148" value="正常Task" style="rounded=1;whiteSpace=wrap;html=1;fillColor=#d5e8d4;strokeColor=#82b366;" vertex="1" parent="1">
          <mxGeometry x="285" y="1599" width="120" height="60" as="geometry" />
        </mxCell>
        <mxCell id="UONJU83UgaEwQnr5J4Ik-149" value="冗余Task" style="rounded=1;whiteSpace=wrap;html=1;fillColor=#dae8fc;strokeColor=#6c8ebf;" vertex="1" parent="1">
          <mxGeometry x="444" y="1599" width="120" height="60" as="geometry" />
        </mxCell>
        <mxCell id="UONJU83UgaEwQnr5J4Ik-150" value="&lt;font style=&quot;font-size: 26px&quot;&gt;Task节点分布&lt;/font&gt;" style="text;html=1;strokeColor=none;fillColor=none;align=center;verticalAlign=middle;whiteSpace=wrap;rounded=0;" vertex="1" parent="1">
          <mxGeometry x="-34" y="1607" width="201" height="70" as="geometry" />
        </mxCell>
      </root>
    </mxGraphModel>
  </diagram>
</mxfile>
